<svg xmlns="http://www.w3.org/2000/svg" width="274.217" height="252.24" viewBox="0 0 274.217 252.24">
  <g id="Group_20" data-name="Group 20" transform="translate(-1062 -1025.786)">
    <path id="Path_178" data-name="Path 178" d="M507.526,426.934a1.093,1.093,0,0,0-.449,1.477l54.5,102.071a1.093,1.093,0,0,0,1.477.449L640.084,489.8a1.093,1.093,0,0,0,.449-1.477l-54.5-102.071a1.093,1.093,0,0,0-1.477-.449Z" transform="translate(622.067 697.723)" fill="#3f3d56"/>
    <path id="Path_179" data-name="Path 179" d="M517.648,436.646l49.869,93.4,68.368-36.5-49.869-93.4Zm-4.332,2.313.01,0-.011.005Z" transform="translate(619.106 690.994)" fill="#f4f2f2"/>
    <path id="Path_180" data-name="Path 180" d="M552.8,464.174c-1.062.567-1.288,2.223-.5,3.69s2.285,2.2,3.347,1.633l50.072-26.734c1.062-.567,1.288-2.222.505-3.69s-2.285-2.2-3.347-1.633Z" transform="translate(601.191 673.735)" fill="#770f8f"/>
    <path id="Path_181" data-name="Path 181" d="M564.335,485.778c-1.062.567-1.288,2.222-.5,3.69s2.285,2.2,3.347,1.633l50.073-26.734c1.062-.567,1.288-2.223.505-3.69s-2.285-2.2-3.347-1.633Z" transform="translate(595.825 663.686)" fill="#770f8f"/>
    <path id="Path_182" data-name="Path 182" d="M575.87,507.383c-1.062.567-1.288,2.222-.5,3.69s2.285,2.2,3.347,1.633l50.073-26.734c1.062-.567,1.288-2.223.5-3.69s-2.285-2.2-3.347-1.633Z" transform="translate(590.46 653.636)" fill="#770f8f"/>
    <path id="Path_183" data-name="Path 183" d="M587.4,528.987c-1.062.567-1.288,2.223-.5,3.69s2.284,2.2,3.347,1.633l50.073-26.733c1.062-.567,1.288-2.222.5-3.69s-2.285-2.2-3.347-1.633Z" transform="translate(585.095 643.587)" fill="#770f8f"/>
    <path id="Path_184" data-name="Path 184" d="M598.939,550.591c-1.062.567-1.288,2.223-.5,3.69s2.285,2.2,3.347,1.633l50.072-26.733c1.062-.567,1.288-2.223.505-3.69s-2.285-2.2-3.347-1.633Z" transform="translate(579.73 633.538)" fill="#770f8f"/>
    <path id="Path_185" data-name="Path 185" d="M397.312,234.335l45.372,2.771,12.706-37.893-39.8-8.408Z" transform="translate(791.08 846.223)" fill="#2f2e41"/>
    <circle id="Ellipse_29" data-name="Ellipse 29" cx="18.146" cy="18.146" r="18.146" transform="translate(1202.968 1034.685)" fill="#ffb8b8"/>
    <path id="Path_186" data-name="Path 186" d="M481.285,264.312l-29.417,4.814-7.755-30.754L464.7,236.5Z" transform="translate(769.311 824.968)" fill="#ffb8b8"/>
    <path id="Path_187" data-name="Path 187" d="M694.246,582.668l.118,1.412a145.888,145.888,0,0,1-71.12,6.023l-.155,2.508a8.584,8.584,0,0,1-11.655,7.456l5.07-11.237,6.413-14.222,4.2-9.322-1.514-32.251-.16-3.338-.2-4.258,2.738-.016,19.469-.118,18.554-.117,2.829-.016C686.581,546.993,701.22,564.729,694.246,582.668Z" transform="translate(573.465 632.838)" fill="#2f2e41"/>
    <path id="Path_188" data-name="Path 188" d="M677.164,452.086,633.841,456.9l-1.6-29.952c-5.084-12.967-1.728-24.541,8.824-34.928l2.145-8.491a12.571,12.571,0,0,1,9.286-9.152h0a44.761,44.761,0,0,1,24.138-5.728h0a18.011,18.011,0,0,1,11.405,18.178C686.17,410.365,682.824,432.4,677.164,452.086Z" transform="translate(564.874 705.656)" fill="#770f8f"/>
    <path id="Path_189" data-name="Path 189" d="M651.508,430.206l-.348,2.626L645.625,474.6l-2.931,6.285-.957,2.054-22.32,47.821-.936,14.922-.155,2.508A8.573,8.573,0,1,1,601.89,544.3l.893-2.1,4.867-11.435,13.195-42.146,1.086-3.477L623.225,481l3.68-11.751,5.862-36.135.556-3.444Z" transform="translate(578.229 677.259)" fill="#ffb8b8"/>
    <path id="Path_190" data-name="Path 190" d="M680.333,409.755c-8.406-3.021-16.469-3.342-24.068,0l2.481-21.5a10.253,10.253,0,0,1,9.709-10.587h0a10.254,10.254,0,0,1,10.78,9.736Z" transform="translate(552.613 701.454)" fill="#6c63ff"/>
    <path id="Path_191" data-name="Path 191" d="M636.931,283.563s-9.383,3.424-9.624,15.873a22.463,22.463,0,0,0,.831,6.2c.608,2.288,1.1,7.252-2.995,13.869a128.259,128.259,0,0,0-7.238,13.325h0l10.565,1.019,1.747-17.514a86.931,86.931,0,0,1,6.21-24.693l.068-.165s4.847,8.424,14.058,8.165l-3.383-3.2s11.538,4.345,17.812,5.217a3.973,3.973,0,0,1,2.393,6.607l-.113.121c-3.837,4.059-11.473,13.493-6.663,20.6s.917,9.193.917,9.193l7.127-4.152,3.234-2.067.074,2.632L689,332.142s4.587-.788-5.6-11.7c0,0-2.729-4.27-1.694-8.049a18.9,18.9,0,0,0,.469-8.858C679.624,291.267,670.258,266.988,636.931,283.563Z" transform="translate(570.456 747.829)" fill="#2f2e41"/>
    <path id="Path_192" data-name="Path 192" d="M221.049,421.108a.535.535,0,0,0-.379.654l14.6,54.783a.536.536,0,0,0,.655.379l41.346-11.016a.536.536,0,0,0,.379-.655l-14.6-54.783a.535.535,0,0,0-.655-.379Z" transform="translate(841.348 686.375)" fill="#f4f2f2"/>
    <path id="Path_193" data-name="Path 193" d="M239.763,441.37a1.326,1.326,0,0,0-.653,1.7c.21.788.844,1.305,1.414,1.153l26.875-7.16a1.326,1.326,0,0,0,.653-1.7c-.21-.788-.844-1.305-1.414-1.153Z" transform="translate(832.794 675.161)" fill="#770f8f"/>
    <path id="Path_194" data-name="Path 194" d="M242.852,452.965a1.326,1.326,0,0,0-.653,1.7c.21.787.844,1.3,1.414,1.153l26.875-7.16a1.326,1.326,0,0,0,.653-1.7c-.21-.788-.844-1.3-1.414-1.153Z" transform="translate(831.357 669.767)" fill="#770f8f"/>
    <path id="Path_195" data-name="Path 195" d="M245.941,464.561a1.327,1.327,0,0,0-.653,1.7c.21.787.844,1.3,1.414,1.153l26.875-7.16a1.326,1.326,0,0,0,.653-1.7c-.21-.787-.844-1.305-1.414-1.153Z" transform="translate(829.92 664.374)" fill="#770f8f"/>
    <path id="Path_196" data-name="Path 196" d="M249.031,476.156a1.326,1.326,0,0,0-.653,1.7c.21.787.844,1.3,1.414,1.153l26.875-7.16a1.326,1.326,0,0,0,.653-1.7c-.21-.787-.844-1.3-1.414-1.153Z" transform="translate(828.483 658.98)" fill="#770f8f"/>
    <path id="Path_197" data-name="Path 197" d="M252.12,487.752a1.326,1.326,0,0,0-.653,1.7c.21.788.844,1.3,1.414,1.153l26.875-7.16a1.326,1.326,0,0,0,.653-1.7c-.21-.787-.844-1.3-1.414-1.153Z" transform="translate(827.046 653.586)" fill="#770f8f"/>
    <path id="Path_198" data-name="Path 198" d="M255.21,499.347a1.326,1.326,0,0,0-.653,1.7c.21.787.844,1.3,1.414,1.153l26.875-7.16a1.326,1.326,0,0,0,.653-1.7c-.21-.787-.844-1.3-1.414-1.153Z" transform="translate(825.609 648.193)" fill="#770f8f"/>
    <path id="Path_206" data-name="Path 206" d="M223.984,339.208a.535.535,0,0,0-.22.724l26.7,50.013a.535.535,0,0,0,.724.22l37.745-20.152a.536.536,0,0,0,.22-.724l-26.7-50.013a.536.536,0,0,0-.724-.22Z" transform="translate(839.93 728.741)" fill="#ecf1fa"/>
    <path id="Path_207" data-name="Path 207" d="M228.943,343.967l24.435,45.766,33.5-17.885-24.435-45.766ZM226.82,345.1l0,0-.005,0Z" transform="translate(838.479 725.444)" fill="#f4f2f2"/>
    <path id="Path_208" data-name="Path 208" d="M246.168,357.455a1.326,1.326,0,0,0-.247,1.808c.384.719,1.119,1.078,1.64.8l24.535-13.1a1.326,1.326,0,0,0,.247-1.808c-.384-.719-1.12-1.078-1.64-.8Z" transform="translate(829.701 716.987)" fill="#770f8f"/>
    <path id="Path_209" data-name="Path 209" d="M251.819,368.041a1.326,1.326,0,0,0-.247,1.808c.384.719,1.119,1.078,1.64.8l24.535-13.1a1.326,1.326,0,0,0,.247-1.808c-.384-.719-1.119-1.078-1.64-.8Z" transform="translate(827.072 712.063)" fill="#770f8f"/>
    <path id="Path_210" data-name="Path 210" d="M257.471,378.626a1.326,1.326,0,0,0-.247,1.808c.384.719,1.119,1.078,1.64.8l24.535-13.1a1.327,1.327,0,0,0,.247-1.808c-.384-.719-1.119-1.078-1.64-.8Z" transform="translate(824.443 707.139)" fill="#770f8f"/>
    <path id="Path_211" data-name="Path 211" d="M263.123,389.212a1.326,1.326,0,0,0-.247,1.808c.384.719,1.119,1.078,1.64.8l24.535-13.1a1.326,1.326,0,0,0,.247-1.808c-.384-.719-1.119-1.078-1.64-.8Z" transform="translate(821.814 702.215)" fill="#770f8f"/>
    <path id="Path_212" data-name="Path 212" d="M268.774,399.8a1.326,1.326,0,0,0-.247,1.808c.384.719,1.119,1.078,1.64.8l24.535-13.1a1.326,1.326,0,0,0,.247-1.808c-.384-.719-1.119-1.078-1.64-.8Z" transform="translate(819.186 697.292)" fill="#770f8f"/>
    <path id="Path_213" data-name="Path 213" d="M274.426,410.384a1.326,1.326,0,0,0-.247,1.808c.384.719,1.119,1.078,1.64.8l24.534-13.1a1.326,1.326,0,0,0,.247-1.808c-.384-.719-1.119-1.078-1.64-.8Z" transform="translate(816.557 692.368)" fill="#770f8f"/>
    <path id="Path_214" data-name="Path 214" d="M884.2,595.682a.535.535,0,0,0-.733.188l-28.844,48.809a.536.536,0,0,0,.188.733l36.837,21.768a.535.535,0,0,0,.732-.188l28.843-48.809a.535.535,0,0,0-.188-.733Z" transform="translate(414.919 610.772)" fill="#e6e6e6"/>
    <path id="Path_215" data-name="Path 215" d="M888.106,601.705,861.712,646.37,894.4,665.69,920.8,621.025Zm-2.071-1.224,0,0-.005,0Z" transform="translate(411.587 608.505)" fill="#f4f2f2"/>
    <path id="Path_216" data-name="Path 216" d="M909.546,621.054a1.556,1.556,0,0,0-1.5,2.545l23.944,14.149a1.556,1.556,0,0,0,1.5-2.545Z" transform="translate(390.24 598.987)" fill="#770f8f"/>
    <path id="Path_217" data-name="Path 217" d="M903.441,631.385a1.556,1.556,0,0,0-1.5,2.545l23.944,14.15a1.556,1.556,0,0,0,1.5-2.545Z" transform="translate(393.079 594.181)" fill="#770f8f"/>
    <path id="Path_218" data-name="Path 218" d="M897.336,641.716a1.556,1.556,0,0,0-1.5,2.546l23.944,14.149a1.556,1.556,0,0,0,1.5-2.545Z" transform="translate(395.919 589.376)" fill="#770f8f"/>
    <path id="Path_219" data-name="Path 219" d="M891.231,652.047a1.556,1.556,0,0,0-1.5,2.545l23.944,14.149a1.556,1.556,0,0,0,1.5-2.545Z" transform="translate(398.759 584.57)" fill="#770f8f"/>
    <path id="Path_220" data-name="Path 220" d="M885.126,662.378a1.556,1.556,0,0,0-1.5,2.545l23.944,14.15a1.556,1.556,0,0,0,1.5-2.545Z" transform="translate(401.599 579.765)" fill="#770f8f"/>
    <path id="Path_221" data-name="Path 221" d="M879.021,672.709a1.556,1.556,0,0,0-1.5,2.545L901.46,689.4a1.556,1.556,0,0,0,1.5-2.545Z" transform="translate(404.439 574.96)" fill="#770f8f"/>
    <g id="Group_67" data-name="Group 67" transform="matrix(0.695, -0.719, 0.719, 0.695, 1107.768, 1240.515)">
      <path id="Path_404" data-name="Path 404" d="M17,.043a.307.307,0,0,0-.42.108L.043,28.132a.307.307,0,0,0,.108.42l21.118,12.48a.307.307,0,0,0,.42-.108L38.224,12.942a.307.307,0,0,0-.108-.42Z" transform="translate(0 0)" fill="#e6e6e6"/>
      <path id="Path_403" data-name="Path 403" d="M15.131.7,0,26.308,18.742,37.383,33.874,11.778ZM13.944,0l0,0,0,0Z" transform="translate(2.197 1.494)" fill="#f4f2f2"/>
      <path id="Path_405" data-name="Path 405" d="M1.113.064A.76.76,0,0,0,.154.482a.76.76,0,0,0,.1,1.042L13.977,9.635a.76.76,0,0,0,.959-.418.761.761,0,0,0-.1-1.042Z" transform="translate(16.269 7.768)" fill="#770f8f"/>
      <path id="Path_406" data-name="Path 406" d="M1.112.064A.76.76,0,0,0,.153.481a.76.76,0,0,0,.1,1.042L13.977,9.635a.76.76,0,0,0,.959-.418.76.76,0,0,0-.1-1.042Z" transform="translate(14.397 10.936)" fill="#770f8f"/>
      <path id="Path_407" data-name="Path 407" d="M1.112.064A.76.76,0,0,0,.153.482a.76.76,0,0,0,.1,1.042L13.977,9.635a.761.761,0,0,0,.959-.418.76.76,0,0,0-.1-1.042Z" transform="translate(12.525 14.104)" fill="#770f8f"/>
      <path id="Path_408" data-name="Path 408" d="M1.113.064A.76.76,0,0,0,.153.482a.76.76,0,0,0,.1,1.042L13.977,9.635a.76.76,0,0,0,.959-.418.76.76,0,0,0-.1-1.042Z" transform="translate(10.653 17.272)" fill="#770f8f"/>
      <path id="Path_409" data-name="Path 409" d="M1.113.064A.761.761,0,0,0,.153.482a.76.76,0,0,0,.1,1.042L13.977,9.635a.76.76,0,0,0,.959-.418.761.761,0,0,0-.1-1.042Z" transform="translate(8.781 20.439)" fill="#770f8f"/>
      <path id="Path_410" data-name="Path 410" d="M1.113.064A.76.76,0,0,0,.153.482a.76.76,0,0,0,.1,1.042L13.977,9.635a.761.761,0,0,0,.959-.418.761.761,0,0,0-.1-1.042Z" transform="translate(6.909 23.607)" fill="#770f8f"/>
    </g>
  </g>
</svg>
