<svg id="Capa_1" data-name="Capa 1" xmlns="http://www.w3.org/2000/svg" viewBox="0 0 448.22 564.96"><defs><style>.cls-1{fill:#8bb8dc;}.cls-2{fill:#f0f1f1;}.cls-3{fill:#343444;}.cls-4{fill:#d34a4a;}.cls-5{fill:#3d3d77;}.cls-6{fill:#ffba7f;}.cls-7{fill:#262260;}.cls-8{fill:#ea5e5e;}.cls-9{fill:#fff;}.cls-10{fill:#d0d2d3;}.cls-11{fill:#bbbdbf;}.cls-12{fill:#57585a;}.cls-13{fill:#929597;}.cls-14{fill:#3b2314;}.cls-15{fill:#221f1f;}.cls-16{fill:#d15c58;}.cls-17{fill:#f88976;}.cls-18{fill:#f69d5e;}.cls-19,.cls-20,.cls-21,.cls-22,.cls-23{fill:none;stroke:#221f1f;stroke-miterlimit:10;}.cls-19{stroke-width:2.51px;}.cls-20,.cls-22{stroke-linecap:round;}.cls-20{stroke-width:5.43px;}.cls-21{stroke-width:4.91px;}.cls-22{stroke-width:5.45px;}.cls-23{stroke-linecap:square;stroke-width:4.54px;}.cls-24{fill:#744c29;}.cls-25{fill:#4b4b70;}.cls-26{fill:#5a5a7a;}.cls-27{fill:#e20707;}</style></defs><title>OO6PT81 [Converted]</title><path class="cls-1" d="M401.18,71a1.57,1.57,0,1,0,1.57,1.57A1.57,1.57,0,0,0,401.18,71Z" transform="translate(-124.37 -30.32)"/><path class="cls-2" d="M446.78,379c-21.41-53.27-30.72-101.21-59.19-110.93C373.19,263.2,331,254.88,331,254.88l45,91.4s10.59,19,27.68,56.52c8.47,18.58,25.61,42.56,39.95,35.6,38.76-18.79,84.65-82.07,84.65-82.07l-30.22-36.24Z" transform="translate(-124.37 -30.32)"/><polygon class="cls-3" points="93.52 508.23 93.16 564.96 159.33 564.96 161.2 506.24 93.52 508.23"/><polygon class="cls-3" points="169.16 508.23 170.97 564.96 237.19 564.96 236.84 510.22 169.16 508.23"/><polygon class="cls-4" points="134.64 224.53 74.72 247.06 74.65 473.62 249.64 473.68 249.72 247.12 193.16 226.7 134.64 224.53"/><polygon class="cls-5" points="156.18 260.85 147.01 389.68 163.68 418.85 180.89 390.97 169.78 260.85 156.18 260.85"/><path class="cls-6" d="M166.12,510s-25,1-28.34,3.13-3.08,29.12-1.12,38.22,10.48,15.29,15.54,15.17,12.54-2.36,15-7.81.27-21.87.27-21.87,3.3,7.16,7.57,5.88,2.57-9.66,2.57-9.66Z" transform="translate(-124.37 -30.32)"/><path class="cls-7" d="M287.15,261.73s-13.57.27-16.89,6.37c-7.31,13.46,10.29,25,10.29,25h13.6s14.55-10.46,10.43-20.58C301.27,264.37,287.15,261.73,287.15,261.73Z" transform="translate(-124.37 -30.32)"/><polygon class="cls-8" points="117 226.45 138.01 255.48 163.55 230.33 120.86 202.49 117 226.45"/><polygon class="cls-8" points="162.02 230.32 187.54 255.49 206.65 228.4 204.73 202.51 162.02 230.32"/><path class="cls-9" d="M124.37,414.73c0,62.82,1.85,101.15,1.85,101.15l50.41-2.22s-5.14-69-1.29-110,24.83-57.4,24.83-57.4l45-91.4s-42.16,8.32-56.56,13.23C160.17,277.8,124.4,351.92,124.37,414.73Z" transform="translate(-124.37 -30.32)"/><path class="cls-9" d="M245.21,254.85l-43.4,9.65-8.51,62.36s-4,189.53-4.53,268.42H288.85L292.31,429Z" transform="translate(-124.37 -30.32)"/><polygon class="cls-2" points="107.97 224.52 96.65 271.1 114.94 289.05 113.27 303.15 167.94 398.66 118.42 214.58 107.97 224.52"/><rect class="cls-10" x="83.84" y="465.34" width="38.91" height="5.13"/><path class="cls-2" d="M372.1,264.55l-43.4-9.67L281.49,429l.09,166.29H385c-.48-78.93-4.42-268.36-4.42-268.36Z" transform="translate(-124.37 -30.32)"/><path class="cls-10" d="M292.67,447.58a3.85,3.85,0,1,0,3.83,3.85A3.85,3.85,0,0,0,292.67,447.58Z" transform="translate(-124.37 -30.32)"/><path class="cls-10" d="M292.65,488a3.85,3.85,0,1,0,3.85,3.84A3.86,3.86,0,0,0,292.65,488Z" transform="translate(-124.37 -30.32)"/><path class="cls-10" d="M292.9,530.86a3.85,3.85,0,1,0,3.84,3.85A3.84,3.84,0,0,0,292.9,530.86Z" transform="translate(-124.37 -30.32)"/><path class="cls-10" d="M292.89,571.25a3.85,3.85,0,1,0,3.85,3.84A3.84,3.84,0,0,0,292.89,571.25Z" transform="translate(-124.37 -30.32)"/><polygon class="cls-10" points="201.14 470.49 240.03 470.51 240.04 465.38 201.14 465.37 201.14 470.49"/><polygon class="cls-9" points="217.21 224.56 206.77 214.61 157.12 398.66 217.61 303.18 210.19 289.08 228.49 271.15 217.21 224.56"/><path class="cls-11" d="M221.08,401.1c-4.82.72-10.85.53-12.93-1.43-1.37-1-2.89-5.14-3.56-10.83-1.54-11.34-1-28.56-1.2-42.12l-4,0c.17,13.46-.37,30.71,1.22,42.61.87,6,2,10.68,5,13.35,4.28,3.41,10.84,2.94,16,2.32a61.08,61.08,0,0,0,7.57-1.49l-1.06-3.83A60.89,60.89,0,0,1,221.08,401.1Z" transform="translate(-124.37 -30.32)"/><path class="cls-12" d="M225.55,398.22c-2.69.58-4.56,2.49-4.18,4.28s2.87,2.78,5.56,2.21,4.56-2.49,4.18-4.28S228.24,397.65,225.55,398.22Z" transform="translate(-124.37 -30.32)"/><path class="cls-11" d="M260.52,338.58l-3.86,1c3.42,13.13,8.43,29.61,9.94,41,.83,5.66.46,10.07-.59,11.39-1.5,2.43-7.26,4.21-12.11,4.77a60.59,60.59,0,0,1-7.15.52v4a63.18,63.18,0,0,0,7.69-.55c5.17-.78,11.62-2,14.86-6.46,2.17-3.36,2-8.17,1.26-14.18C269,368.1,263.9,351.61,260.52,338.58Z" transform="translate(-124.37 -30.32)"/><path class="cls-12" d="M248.84,395.1c-2.74.15-4.88,1.77-4.78,3.6s2.41,3.18,5.16,3,4.88-1.78,4.78-3.6S251.58,394.94,248.84,395.1Z" transform="translate(-124.37 -30.32)"/><path class="cls-12" d="M224.89,304.5c-17.8,2.55-28.66,22.75-25.78,44.57l5.15-.7c-1.33-9.91.53-19.26,4.48-26.23s9.89-11.56,16.84-12.49,13.84,1.92,19.52,7.62,9.9,14.22,11.23,24.13l5.14-.69C258.52,318.91,242.73,302.27,224.89,304.5Z" transform="translate(-124.37 -30.32)"/><path class="cls-12" d="M230,246.67a51,51,0,0,0-11.43,32.85,94.6,94.6,0,0,0,4,25.74l4.74-1.51h0s-.91-2.88-1.85-7.38a84.28,84.28,0,0,1-1.87-16.85,49.48,49.48,0,0,1,.79-9.22,50,50,0,0,1,9.6-20.59c4.34-5.72,9.49-9.64,12.44-10.3l-1.2-4.83C240.14,235.91,234.84,240.45,230,246.67Z" transform="translate(-124.37 -30.32)"/><path class="cls-12" d="M344.3,246.67c-4.86-6.22-10.16-10.76-15.17-12.09l-1.21,4.83c2.95.66,8.1,4.59,12.44,10.3A50.14,50.14,0,0,1,350,270.3a60.92,60.92,0,0,1,.79,10.87c0,16.69-3.81,38.79-3.81,38.83l4.91.86v0c0-.06,3.87-22.3,3.88-39.67a67.75,67.75,0,0,0-.87-11.79A55,55,0,0,0,344.3,246.67Z" transform="translate(-124.37 -30.32)"/><path class="cls-13" d="M344.14,318.6a17.92,17.92,0,1,0,17.91,17.92A17.92,17.92,0,0,0,344.14,318.6Z" transform="translate(-124.37 -30.32)"/><path class="cls-10" d="M344.14,327.9a8.63,8.63,0,1,0,8.62,8.62A8.63,8.63,0,0,0,344.14,327.9Z" transform="translate(-124.37 -30.32)"/><path class="cls-6" d="M199.73,146.91c-8.58,2.5-6.6,15.37-6.6,20.16s7.17,21.77,12,23.63c12.18,4.72,12.19-13,12.19-13V157S208.3,144.42,199.73,146.91Z" transform="translate(-124.37 -30.32)"/><path class="cls-6" d="M374.38,147.12c-8.57-2.49-17.57,10.06-17.57,10.06v20.68s0,18.31,12.17,13c4.73-2,12-18.84,12-23.63S383,149.61,374.38,147.12Z" transform="translate(-124.37 -30.32)"/><path class="cls-6" d="M308.74,56.36H266.12c-30.93,0-56,32.68-56,73l0,55.58c0,40.35,42,68.63,56,73.08,14.68,4.67,29,4,42.62,0,14.65-4.32,56-32.69,56-73v-55.6C364.74,89.09,339.68,56.37,308.74,56.36Z" transform="translate(-124.37 -30.32)"/><path class="cls-14" d="M210.08,161c5.73-4.62,20-82.33,20.72-86.43l-24.43,7.78S205.09,165,210.08,161Z" transform="translate(-124.37 -30.32)"/><path class="cls-14" d="M346.51,79.45s14.47,79.45,19,83.23,3.38-71,3.38-71Z" transform="translate(-124.37 -30.32)"/><path class="cls-15" d="M252.93,155.58a9.18,9.18,0,1,0,9.16,9.19A9.18,9.18,0,0,0,252.93,155.58Z" transform="translate(-124.37 -30.32)"/><path class="cls-15" d="M322.83,155.6a9.18,9.18,0,1,0,9.17,9.18A9.18,9.18,0,0,0,322.83,155.6Z" transform="translate(-124.37 -30.32)"/><path class="cls-14" d="M346.14,140.41c-10.68-7.15-31.09-4.66-34.2-4.35-2.72.27-8.28,2.7-8,5.42s9.84,4.73,12.56,4.46c10.37-1,20-2,34.59,1.36C353.74,147.92,348.42,141.94,346.14,140.41Z" transform="translate(-124.37 -30.32)"/><path class="cls-14" d="M265.18,136.48c-3.11-.31-23.52-2.81-34.21,4.34-2.27,1.52-7.59,7.55-4.93,6.88,14.9-3.79,24.22-2.37,34.59-1.34,2.71.28,12.29-1.72,12.57-4.45S267.9,136.76,265.18,136.48Z" transform="translate(-124.37 -30.32)"/><path class="cls-16" d="M259.66,213.81c4.47,9.27,11,24.39,31,24.36,20.9,0,33.84-31.93,33.84-31.93C298.12,218.73,283.09,220.22,259.66,213.81Z" transform="translate(-124.37 -30.32)"/><path class="cls-9" d="M264.92,215.15c1.66,5.47,9.36,7.73,24.93,6.63,20.61-1.48,25.2-6.56,27.76-12.43C301,217,278.3,218.05,264.92,215.15Z" transform="translate(-124.37 -30.32)"/><path class="cls-17" d="M290.34,228.8a15.48,15.48,0,0,0-8.51-3.1c-4.6,0-13.28,2.89-13.28,2.89,4,5.5,11.28,9.47,21.5,9.51,12.92.08,20.79-10.37,20.79-10.37s-8.07-2-13.68-2C293.58,225.67,290.34,228.8,290.34,228.8Z" transform="translate(-124.37 -30.32)"/><path class="cls-18" d="M299.65,194.7c-8,6.66-19.31,4.64-22.63,0,0,0,3.33,12,11.31,11.58S307.63,188.05,299.65,194.7Z" transform="translate(-124.37 -30.32)"/><path class="cls-14" d="M309.23,34.34c-35.41-8.19-55.05,5.5-55.05,5.5S249,35.68,253,30.32c-9.82,1.34-12.5,11.46-15.63,19.19a24.63,24.63,0,0,0-17.7,1.05s7.89,6.09-.59,13.09c-23.8,19.64-12.5,42.55-12.5,42.55s8.77,21.81,12.94,17.41c15.63-16.52,27.9-25.23,30.58-37.72,0,0,16.61,21.51,39,26.56,18.45,4.16,41.29,7.73,50.95,5.8-8.32-8.34-10.71-24.1-10.71-24.1s26.51,48.56,39.28,12.49C382.13,68.41,334.56,40.19,309.23,34.34Z" transform="translate(-124.37 -30.32)"/><path class="cls-19" d="M275.46,155.76s0,20.43-9.78,25.38c-7.79,4-29.67,3.54-35.65-2s-8.52-25.27-8.52-25.27" transform="translate(-124.37 -30.32)"/><path class="cls-20" d="M219.7,155.33s36.53-7.48,57.56.75" transform="translate(-124.37 -30.32)"/><line class="cls-21" x1="98.76" y1="127.55" x2="79.52" y2="114.39"/><path class="cls-19" d="M300.41,155.76s0,20.51,9.83,25.48c7.82,3.95,29.77,3.56,35.79-2.05s8.56-25.37,8.56-25.37" transform="translate(-124.37 -30.32)"/><path class="cls-22" d="M298.61,156.09c22.69-7.56,57.78-.76,57.78-.76" transform="translate(-124.37 -30.32)"/><line class="cls-21" x1="228.57" y1="127.55" x2="247.83" y2="114.39"/><path class="cls-23" d="M277.26,159.55s6.58-3.35,11.11-3.35A23,23,0,0,1,298.61,159" transform="translate(-124.37 -30.32)"/><path class="cls-6" d="M562.47,287.35l-5.55,7.28c-1.43,1.83-8.16,5-5.27,7.76,3.51,3.36,7.81,3.5,9.17,2l9.73-10.77c1.46-1.78,3.52-5.15.46-8.06C567.5,282.24,563.82,285.87,562.47,287.35Z" transform="translate(-124.37 -30.32)"/><rect class="cls-24" x="279.65" y="214.38" width="156.03" height="204.95"/><rect class="cls-9" x="289.75" y="225.62" width="135.85" height="181.43"/><path class="cls-25" d="M511.73,240H494.5v-8.31a5.06,5.06,0,0,0-5.05-5.06H474.63a5.06,5.06,0,0,0-5.05,5.06V240H452.35A5,5,0,0,0,447.3,245v11.27a5.06,5.06,0,0,0,5.05,5.06h59.38a5.06,5.06,0,0,0,5-5.06V245A5,5,0,0,0,511.73,240ZM482,241.15a4.92,4.92,0,1,1,4.92-4.91A4.91,4.91,0,0,1,482,241.15Z" transform="translate(-124.37 -30.32)"/><rect class="cls-13" x="340.3" y="254.47" width="75.05" height="3.48"/><rect class="cls-11" x="340.3" y="263.34" width="75.05" height="3.49"/><rect class="cls-11" x="340.3" y="272.22" width="75.05" height="3.49"/><rect class="cls-11" x="340.3" y="281.09" width="75.05" height="3.49"/><rect class="cls-13" x="299.6" y="300.56" width="116.5" height="3.48"/><rect class="cls-11" x="299.6" y="308.15" width="116.5" height="3.49"/><rect class="cls-11" x="299.6" y="315.75" width="116.5" height="3.48"/><rect class="cls-11" x="299.6" y="323.34" width="116.5" height="3.49"/><rect class="cls-11" x="299.6" y="330.93" width="116.5" height="3.49"/><rect class="cls-11" x="299.6" y="338.53" width="116.5" height="3.48"/><rect class="cls-13" x="299.6" y="357.08" width="116.5" height="3.48"/><rect class="cls-11" x="299.6" y="364.67" width="116.5" height="3.49"/><rect class="cls-11" x="299.6" y="372.26" width="116.5" height="3.49"/><rect class="cls-11" x="299.6" y="379.85" width="116.5" height="3.48"/><path class="cls-26" d="M469.58,231.64V240H452.35A5,5,0,0,0,447.3,245v11.27a5.06,5.06,0,0,0,5.05,5.06H482V241.15a4.92,4.92,0,0,1,0-9.83v-4.74h-7.41A5.06,5.06,0,0,0,469.58,231.64Z" transform="translate(-124.37 -30.32)"/><path class="cls-27" d="M440.49,280.86a17.28,17.28,0,1,0,17.28,17.28A17.28,17.28,0,0,0,440.49,280.86Z" transform="translate(-124.37 -30.32)"/><rect class="cls-9" x="312.56" y="257.71" width="7.13" height="20.21"/><rect class="cls-9" x="306.02" y="264.25" width="20.21" height="7.13"/><path class="cls-6" d="M558.69,336.35l-1.77,2.24c-1.43,1.83-3.13,5-.24,7.76,3.52,3.36,7.19-.28,8.55-1.75l1.54-2c1.46-1.77,3.52-5.14.47-8.06C563.71,331.24,560,334.88,558.69,336.35Z" transform="translate(-124.37 -30.32)"/><path class="cls-6" d="M558.69,321.94l-1.77,2.25c-1.43,1.83-3.13,5-.24,7.76,3.52,3.35,7.19-.28,8.55-1.75l1.54-2c1.46-1.77,3.52-5.14.47-8.05C563.71,316.84,560.05,320.47,558.69,321.94Z" transform="translate(-124.37 -30.32)"/><path class="cls-6" d="M558.69,307.43l-1.77,2.23c-1.43,1.84-3.13,5-.24,7.77,3.52,3.36,7.19-.28,8.55-1.75l1.54-1.95c1.46-1.78,3.52-5.15.47-8.06C563.71,302.32,560.05,306,558.69,307.43Z" transform="translate(-124.37 -30.32)"/></svg>