<svg xmlns="http://www.w3.org/2000/svg" viewBox="0 0 1622.21 932.82"><defs><style>.cls-1{fill:#efd4f5;}.cls-2{fill:#fe9f73;}.cls-3{fill:#f5fff5;}.cls-4{fill:#2da981;}.cls-5{fill:#1e2b5f;}.cls-6{fill:#fc716e;}.cls-7{fill:#1e3877;}.cls-8{fill:#ffd19d;}.cls-9{fill:#ffbb84;}.cls-10{fill:#7fc6a6;}.cls-11{fill:#54c295;}.cls-12{fill:#ff8b88;}.cls-13{fill:#f07162;}.cls-14{fill:#f9956e;}.cls-15{fill:#770f8f;}</style></defs><title>Psychotherapeutic session flat vector illustration [Converted]</title><g id="Layer_1" data-name="Layer 1"><ellipse class="cls-1" cx="1960.91" cy="837.61" rx="82.67" ry="44.29" transform="translate(-1538.91 212.33) rotate(-27.37)"/><ellipse class="cls-1" cx="1840.17" cy="818.53" rx="30.35" ry="16.26" transform="matrix(0.92, -0.39, 0.39, 0.92, -1546.85, -0.6)"/><path class="cls-2" d="M1934.4,1228.15a5.3,5.3,0,0,0-4.45-5.68l-16.94-2.9a1.26,1.26,0,0,1-1-1h0a1.27,1.27,0,0,1,1.29-1.46l25.36.94a4.18,4.18,0,0,0,4.44-5h0a6.74,6.74,0,0,0-6.12-5.42l-25.85-1a1.27,1.27,0,0,1-1.2-1.06l-.07-.42a1.26,1.26,0,0,1,1.05-1.44l28.33-4.56a5.29,5.29,0,0,0,4.51-5.62,5.19,5.19,0,0,0-6-4.64l-28.51,4.58a1.25,1.25,0,0,1-1.44-1l-.22-1.33a1.26,1.26,0,0,1,.89-1.41l25.7-7.66a5.31,5.31,0,0,0,3.75-6.17,5.19,5.19,0,0,0-6.54-3.82s-39.82,9.58-46.17,10.57l6.36-13.56a5.18,5.18,0,0,0-1.16-7.24h0a5.18,5.18,0,0,0-7.24,1.16l-22.56,24.59c-1.1,1.51-.52,5.2.66,8.06,2.54,30.48,3.18,35.16,4.62,43.31l32.09-6.27a77.84,77.84,0,0,1,28.06-.33l2.34.4A5.18,5.18,0,0,0,1934.4,1228.15Z" transform="translate(-1373.34 -782.92)"/><path class="cls-3" d="M1751.82,1187.86l114.55-16.56s14.37,43.86,11,71.66c0,0-104.68,34.84-127,32s-45.08-34.8-45.08-34.8-3.55-166.5-.21-163.92S1751.82,1187.86,1751.82,1187.86Z" transform="translate(-1373.34 -782.92)"/><polygon class="cls-2" points="590.49 910.62 504.22 903.62 503.33 885.49 502.48 821.52 591.57 830.56 590.49 910.62"/><path class="cls-4" d="M1731.13,1241s186.08,23.34,212.09,56.69c12.83,16.44,39,237,28.12,328.76,0,0-66.47,4.58-98.26-3.13l-7.73-223.73-142.89-43.21-73.36-112.71Z" transform="translate(-1373.34 -782.92)"/><path class="cls-5" d="M1918.61,1629c-27,0-45.62-4.42-45.81-4.47l-.9-.21-7.82-226.22,10,8-1.53,1.9-5.83-4.7,7.57,219a220.74,220.74,0,0,0,46.7,4.19l0,2.44Z" transform="translate(-1373.34 -782.92)"/><path class="cls-6" d="M1903,1715.73l117.8,0a19.4,19.4,0,0,0,2.57-.55c7.55-2.41,8.18-6.83,7.83-9.38a4,4,0,0,0-1.79-2.77l-65.07-42.13-21.5,9.51a69.38,69.38,0,0,1-21.61,5.71c-15.25,1.46-39.73,2.25-44.59-7.22l.76,36.36S1873.89,1716,1903,1715.73Z" transform="translate(-1373.34 -782.92)"/><path class="cls-7" d="M1715.84,1695.85h-72V1449.7h-16v246.15H1557.8a17.71,17.71,0,0,0-17.71,17.71h193.46A17.71,17.71,0,0,0,1715.84,1695.85Z" transform="translate(-1373.34 -782.92)"/><polygon class="cls-8" points="54.46 285.89 219.84 285.89 307.33 666.79 117.82 647.03 54.46 285.89"/><path class="cls-9" d="M1806.62,1410.9h-282.2a21.7,21.7,0,0,1-21.34-17.77l-57.67-312.21a15.12,15.12,0,0,0-18.15-12,15.35,15.35,0,0,0-11.51,17.85l65.33,353.7a15.11,15.11,0,0,0,3.44,7.13,24.89,24.89,0,0,0,21.94,13.12h300.16a24.91,24.91,0,0,0,24.91-24.91h0A24.91,24.91,0,0,0,1806.62,1410.9Z" transform="translate(-1373.34 -782.92)"/><path class="cls-5" d="M1524.42,1412.12a22.93,22.93,0,0,1-22.54-18.76l-57.67-312.21a13.88,13.88,0,0,0-16.69-11,1.21,1.21,0,0,1-1.44-.93,1.2,1.2,0,0,1,.92-1.44,16.32,16.32,0,0,1,19.6,13l57.67,312.21a20.49,20.49,0,0,0,20.15,16.77,1.22,1.22,0,0,1,0,2.43Z" transform="translate(-1373.34 -782.92)"/><path class="cls-10" d="M1733.61,1413.28s-71.32,1.18-121.31-.54c-16-.54-30.32.59-38.78-1.29-34.79-7.73-43.36-116.33-3.85-182.86s177.72,137.75,177.72,137.75Z" transform="translate(-1373.34 -782.92)"/><path class="cls-2" d="M1862,1694.76l-73.57-4a15.28,15.28,0,0,1-14.46-14.88l-1.8-72.43,89.09,9Z" transform="translate(-1373.34 -782.92)"/><path class="cls-11" d="M1673.77,1264.32s187.56,38.44,192.62,58.67,19.46,212.17,8.62,303.92c0,0-71.47,4.1-103.26-3.61l-8.57-211-30.83,1.08-74.76-131.52Z" transform="translate(-1373.34 -782.92)"/><path class="cls-5" d="M1814.63,1629.41c-31.58,0-42.84-4.76-43.37-5l-.7-.31-8.29-212.29,13,6.16-1,2.2-9.42-4.44,8.07,206.7c3.42,1.18,19.8,5.91,58.49,4.12l.11,2.44C1825.34,1629.28,1819.72,1629.41,1814.63,1629.41Z" transform="translate(-1373.34 -782.92)"/><path class="cls-5" d="M1785,1583.63c-3.37-13-4.34-139.81-4.38-145.21h2.44c0,1.32,1,131.89,4.3,144.61Z" transform="translate(-1373.34 -782.92)"/><path class="cls-5" d="M1679.94,1415.56c-31.12,0-68.42-1.06-110.36-4.22l.18-2.42c125,9.42,208.77.1,209.6,0l.28,2.41C1779.08,1411.4,1741.73,1415.56,1679.94,1415.56Z" transform="translate(-1373.34 -782.92)"/><path class="cls-12" d="M1800.26,1715.73l117.8,0a18.85,18.85,0,0,0,2.56-.55c7.56-2.41,8.19-6.83,7.83-9.38a4,4,0,0,0-1.78-2.77l-65.08-42.13-21.49,9.51a69.52,69.52,0,0,1-21.61,5.71c-15.26,1.46-40,2.25-44.83-7.23l1,36.37S1771.1,1716,1800.26,1715.73Z" transform="translate(-1373.34 -782.92)"/><path class="cls-3" d="M1537.54,1283c-6.21,101,12.34,128.54,39.1,131.55s162,5.63,182.38,0c4,67.48,3.25,96.46,3.25,96.46,106.35,3.93,243.08-42.51,241.74-50.3-34-128.52-49.35-153.34-56.46-164.5s-45.81-25.94-111.39-40.11-108.27-17.19-108.27-17.19Z" transform="translate(-1373.34 -782.92)"/><path class="cls-5" d="M1894.33,1271.85a1,1,0,0,1-.29,0c-35.94-10.87-107.84-25.94-145.16-30.43a1,1,0,1,1,.24-2c37.4,4.5,109.48,19.61,145.5,30.5a1,1,0,0,1-.29,2Z" transform="translate(-1373.34 -782.92)"/><path class="cls-3" d="M1600,1341.17s45.14-21.5,87.11-53.18,67.33-51.68,67.33-51.68-5.84-12.9-11.47-23.69l-9.88-19L1709,1088.23s-7.56-50.68-75.9-62.74c2.61,1.21-5.59-.94-5.59-.94s-61.88,2.24-85.34,5.49c-36.44,5-40.18,99.24-40.18,99.24,0,62.56,7.39,148.19,29.13,176.08,27.63,35.42,59.48,36.55,69,36A1.47,1.47,0,0,1,1600,1341.17Z" transform="translate(-1373.34 -782.92)"/><path class="cls-5" d="M1936.79,1486.69c-.29-1.37-29.36-137.63-52.49-167.15-11.43-14.58-40.16-19.82-76.54-26.45-36.54-6.66-82-14.95-123.47-36.16l-.34-.18-.09-.37c-28.73-121.07-41.5-161.43-68.32-215.94l1.5-.73c28.47,57.87,41.44,102.5,68.36,215.91,41.14,21,86.33,29.21,122.66,35.83,36.72,6.69,65.73,12,77.55,27.06,23.38,29.82,51.62,162.21,52.81,167.83Z" transform="translate(-1373.34 -782.92)"/><polygon class="cls-3" points="291.86 420.39 306.2 413.25 344.96 481.4 325.54 495.93 300.52 474.08 291.86 420.39"/><path class="cls-3" d="M1582.11,1022.59s-41.27-1.44-61,9.72c-29.39,16.65-18.92,112-18.92,112s25-13.63,26.49-18.17S1582.11,1022.59,1582.11,1022.59Z" transform="translate(-1373.34 -782.92)"/><path class="cls-5" d="M1571.53,1337.73c2.66,1,5.21,1.66,7.49,2.41A55.92,55.92,0,0,0,1613,1340a1.14,1.14,0,0,0-.37-2.24,51.36,51.36,0,0,1-33.11.17c-12.15-4.17-30.72-11.77-47.47-33.25-21-27-28.71-110-28.89-172.88a1.14,1.14,0,0,0-1.14-1.13,1.12,1.12,0,0,0-1.13,1.14c.18,63.25,8,146.85,29.37,174.26C1544.28,1324.09,1559.47,1333.17,1571.53,1337.73Z" transform="translate(-1373.34 -782.92)"/><path class="cls-5" d="M1605.27,1233.87a1.26,1.26,0,0,0,.67,0,1.14,1.14,0,0,0,.84-1.37c-.19-.8-19-80.68-27-131a1.13,1.13,0,0,0-2.24.36c8,50.35,26.82,130.31,27,131.11A1.13,1.13,0,0,0,1605.27,1233.87Z" transform="translate(-1373.34 -782.92)"/><path class="cls-5" d="M1605.56,1067.47c.88.09,1.77.16,2.69.23a1,1,0,0,0,1-.88.93.93,0,0,0-.87-1c-39.11-2.75-46.37-31.38-46.43-31.67a.94.94,0,0,0-1.08-.76.93.93,0,0,0-.78,1C1560.13,1034.74,1567.35,1063.51,1605.56,1067.47Z" transform="translate(-1373.34 -782.92)"/><path class="cls-5" d="M1632.45,1462.14h0l-117.73-.21c-31.71,2.86-35.49-24.28-35.67-25.77l-7-37.89a1.22,1.22,0,1,1,2.39-.44l7,38c.11,1.08,3,26.39,33.1,23.65h.11l117.79.21a1.22,1.22,0,0,1,0,2.43Z" transform="translate(-1373.34 -782.92)"/><path class="cls-5" d="M1491.52,1070h0l-57.87-.09a1.22,1.22,0,0,1,0-2.43h0l57.88.09a1.22,1.22,0,0,1,0,2.43Z" transform="translate(-1373.34 -782.92)"/><path class="cls-5" d="M1705.23,1182.81c-7.67-25.84-15.94-55.13-18.82-70.26a1.14,1.14,0,0,0-1.33-.9,1.12,1.12,0,0,0-.9,1.32c2.9,15.28,11.27,44.86,19,70.85Z" transform="translate(-1373.34 -782.92)"/><path class="cls-5" d="M1638.52,1325.37a1,1,0,0,1-.55-1.84c13.07-8.72,109.45-82.94,115.34-87.57-8.07-24.08-30.8-53.72-34.46-58.42l-110.58,55.62-14.61,10.63a1,1,0,0,1-1.18-1.62l14.82-10.76L1719.4,1175l.51.64c.27.33,26.89,33.8,35.52,60.34l.21.66-.54.43c-.57.45-102.15,78.85-116,88.11A1,1,0,0,1,1638.52,1325.37Z" transform="translate(-1373.34 -782.92)"/><path class="cls-5" d="M1877.59,1226.53a1,1,0,0,1-1-.91c-2-22.66-9.34-48.07-10.78-52.9l-114.64,16-20.34-50.33c-19.11-54.16-35-76.44-35.16-76.66-25.37-32.34-67.82-36.15-68.25-36.18a1,1,0,0,1,.16-2c.44,0,43.74,3.91,69.69,37,.18.25,16.23,22.72,35.43,77.17l19.74,48.83,114.79-16,.25.81c.09.29,8.85,28.86,11.11,54.13a1,1,0,0,1-.91,1.08Z" transform="translate(-1373.34 -782.92)"/><path class="cls-2" d="M1636.84,939.38l1.28,49.41s1.08,15.87-12.77,18.22l3.14,21.13a16.55,16.55,0,0,1-10.85,18.11,43.63,43.63,0,0,1-13.07,2.36c-15.88.41-24.8-11.28-26.28-17.2s1.76-34.49,1.76-34.49l-.85-14,.4-54.23Z" transform="translate(-1373.34 -782.92)"/><path class="cls-13" d="M1592.77,994.35s1.63,26.56,34.9,28.24l-2.32-15.58S1603.93,1011.89,1592.77,994.35Z" transform="translate(-1373.34 -782.92)"/><path class="cls-5" d="M1599.16,966.29a.63.63,0,0,1-.46-.17.67.67,0,0,1,0-.94c.09-.09,8.95-9.64,17.45-3.15a.65.65,0,0,1,.12.92.67.67,0,0,1-.93.13c-7.52-5.75-15.33,2.64-15.66,3A.66.66,0,0,1,1599.16,966.29Z" transform="translate(-1373.34 -782.92)"/><path class="cls-5" d="M1576.17,959.94l14.36,2.6,2.65,2.61s-1.86-23.92-4.67-28.55S1576.17,959.94,1576.17,959.94Z" transform="translate(-1373.34 -782.92)"/><path class="cls-5" d="M1626.34,961.61a.62.62,0,0,1-.5-.21.66.66,0,0,1,0-.94c.26-.24,6.43-5.8,10.51-2.48a.66.66,0,0,1-.83,1c-3.2-2.6-8.73,2.38-8.79,2.43A.63.63,0,0,1,1626.34,961.61Z" transform="translate(-1373.34 -782.92)"/><path class="cls-5" d="M1612.61,968.62a2,2,0,1,1-2-1.93A2,2,0,0,1,1612.61,968.62Z" transform="translate(-1373.34 -782.92)"/><path class="cls-5" d="M1633.67,966.09a2,2,0,1,1-2-1.94A2,2,0,0,1,1633.67,966.09Z" transform="translate(-1373.34 -782.92)"/><circle class="cls-2" cx="1584.28" cy="968.67" r="11.92" transform="translate(-930.34 1650.58) rotate(-83.52)"/><path class="cls-13" d="M1582.37,975.33a5,5,0,0,1-4.77-3.6,4.66,4.66,0,0,1,1.74-5.49,5.6,5.6,0,0,1,6.26.06,5.38,5.38,0,0,0-2.48-2.87,7.51,7.51,0,0,0-5.3-.21.32.32,0,0,1-.42-.2.33.33,0,0,1,.2-.42,8,8,0,0,1,5.82.24,6.45,6.45,0,0,1,3.15,4.26l.32,1.14-.87-.81c-.12-.12-3-2.8-6.32-.63a4,4,0,0,0-1.47,4.73,4.27,4.27,0,0,0,4.12,3.14h.07a.33.33,0,0,1,.34.32.34.34,0,0,1-.32.34Z" transform="translate(-1373.34 -782.92)"/><path class="cls-13" d="M1620,981.83a.32.32,0,0,1-.32-.22.32.32,0,0,1,.2-.42l6.57-2.37-2.5-15.55a.33.33,0,0,1,.28-.38.32.32,0,0,1,.38.27l2.58,16.1-7.09,2.55A.18.18,0,0,1,1620,981.83Z" transform="translate(-1373.34 -782.92)"/><path class="cls-3" d="M1615,988.41c.2,0,13.09-.68,13.09-.68s-1.48,5.38-6.27,5.63S1615,988.41,1615,988.41Z" transform="translate(-1373.34 -782.92)"/><path class="cls-5" d="M1576.17,959.94s-4.63-23.1,2.25-31.93,47.25-25,52.31-20.82.25,9.57.25,9.57,16.23-5.67,20.31,8.75-31,21.5-52.14,15.25A47,47,0,0,0,1576.17,959.94Z" transform="translate(-1373.34 -782.92)"/><path class="cls-2" d="M1774.15,1203.29l28.65-1.54a5.28,5.28,0,0,0,5.08-5.11,5.18,5.18,0,0,0-5.46-5.25l-28.83,1.55a1.27,1.27,0,0,1-1.32-1.19l-.07-1.35a1.26,1.26,0,0,1,1-1.31l26.38-4.9a5.29,5.29,0,0,0,4.37-5.73,5.17,5.17,0,0,0-6.09-4.49s-40.62,5.31-47,5.63l7.77-12.82a5.19,5.19,0,0,0-.4-7.32h0a5.17,5.17,0,0,0-7.31.39l-25,22.06a2.64,2.64,0,0,0-.52.92c7.61,10.37,21.3,30.3,28.33,48.28l4.58-.4a77.72,77.72,0,0,1,27.94,2.64l2.28.65a5.18,5.18,0,0,0,6.48-3.91,5.29,5.29,0,0,0-3.83-6.11l-16.52-4.68a1.26,1.26,0,0,1,.52-2.46l25.11,3.61a4.18,4.18,0,0,0,5-4.52h0a6.72,6.72,0,0,0-5.52-6l-25.6-3.68A1.26,1.26,0,0,1,1773,1205l0-.43A1.25,1.25,0,0,1,1774.15,1203.29Z" transform="translate(-1373.34 -782.92)"/><path class="cls-5" d="M2601,1695.85h72V1449.7h16v246.15H2759a17.71,17.71,0,0,1,17.71,17.71H2583.28A17.71,17.71,0,0,1,2601,1695.85Z" transform="translate(-1373.34 -782.92)"/><polygon class="cls-8" points="1515.69 316.35 1350.31 316.35 1262.82 697.24 1452.34 677.49 1515.69 316.35"/><path class="cls-9" d="M2510.21,1441.36h282.2a21.72,21.72,0,0,0,21.35-17.76l57.66-312.21a15.12,15.12,0,0,1,18.15-12,15.34,15.34,0,0,1,11.51,17.85l-65.33,353.7a14.93,14.93,0,0,1-3.43,7.12,24.92,24.92,0,0,1-22,13.12H2510.21a24.9,24.9,0,0,1-24.9-24.9h0A24.9,24.9,0,0,1,2510.21,1441.36Z" transform="translate(-1373.34 -782.92)"/><path class="cls-5" d="M2792.41,1442.58a22.93,22.93,0,0,0,22.54-18.76l57.67-312.21a13.88,13.88,0,0,1,16.69-11,1.22,1.22,0,0,0,.52-2.38,16.33,16.33,0,0,0-19.6,13l-57.67,312.21a20.49,20.49,0,0,1-20.15,16.77,1.22,1.22,0,0,0,0,2.43Z" transform="translate(-1373.34 -782.92)"/><path class="cls-5" d="M2684.38,1492.6h0l117.73-.21c31.72,2.86,35.49-24.28,35.67-25.77l7-37.89a1.22,1.22,0,1,0-2.39-.45l-7,38c-.11,1.07-3,26.39-33.09,23.64h-.12l-117.78.21a1.22,1.22,0,0,0,0,2.43Z" transform="translate(-1373.34 -782.92)"/><path class="cls-5" d="M2825.32,1100.48h0l57.87-.08a1.22,1.22,0,0,0,0-2.43h0l-57.87.08a1.22,1.22,0,1,0,0,2.43Z" transform="translate(-1373.34 -782.92)"/><path class="cls-4" d="M2495.89,1044.21s25.32-14,85.39,7,103.47,87.78,120.15,131.84,36.05,171.54,25.37,184.89-246.3-114.39-246.3-114.39l-15.57-165.44Z" transform="translate(-1373.34 -782.92)"/><polygon class="cls-2" points="910.29 845.68 891.52 882.76 948.09 915.27 961.31 889.19 957.1 866.71 910.29 845.68"/><path class="cls-11" d="M2313.46,1710H2220a15.28,15.28,0,0,1-2-.45c-6.74-2.18-6.53-6.42-6.07-8.26a2.17,2.17,0,0,1,.93-1.31l52-34.26,17.06,7.67a54.39,54.39,0,0,0,17.15,4.6c12.11,1.18,31.72,1.81,35.58-5.84l-.8,29.37S2336.6,1710.18,2313.46,1710Z" transform="translate(-1373.34 -782.92)"/><path class="cls-5" d="M2359,1325.23s-79.43,218.93-102.13,314.39c0,0,38.72,38,87.44,34l68.09-151.52Z" transform="translate(-1373.34 -782.92)"/><polygon class="cls-2" points="1137.36 676.13 1173.69 824.21 1177.28 889.19 1164.06 915.27 1111.33 895.5 1040.73 661.12 1137.36 676.13"/><path class="cls-7" d="M2419.75,1265.33s-56.64-5.85-68.53,47.07c-6.7,29.84,31.6,153.11,62.53,242.69,19.2,55.61,40.88,109.56,40.88,109.56s70.29,1.67,104.88-23l-46.72-209.22s125.9,41,171.29,3.63,42.72-68.09,42.72-68.09L2636,1295.19Z" transform="translate(-1373.34 -782.92)"/><path class="cls-2" d="M2649.7,1230.11l-91.45-22.73-1.12,51.1s-58.36-12.42-99.33-18.88l-34.41,49.89c8.21,2.19,50.11,13.89,61.94,19,0,0,114.31,48.06,141,36.71S2649.7,1230.11,2649.7,1230.11Z" transform="translate(-1373.34 -782.92)"/><path class="cls-13" d="M2576.64,1275a.85.85,0,0,0,.65-.3.83.83,0,0,0-.12-1.17l-19.1-15.73a.83.83,0,1,0-1.05,1.29l19.09,15.72A.84.84,0,0,0,2576.64,1275Z" transform="translate(-1373.34 -782.92)"/><path class="cls-14" d="M2417.92,1034.58s-2.51,2.46-.67,7.38,13.59,29.2,13.59,29.2-16.79,144.73-16.77,168.61,77.1,12.51,77.1,12.51-15-178.91-24-187.15S2417.92,1034.58,2417.92,1034.58Z" transform="translate(-1373.34 -782.92)"/><path class="cls-2" d="M2410.21,1025.27l31,41.68s9.39,13.81,22.36,6.77l11.09,19.51a17.37,17.37,0,0,0,20.7,7.94,45.43,45.43,0,0,0,12.34-6.52c13.4-10,13.2-25.39,10.58-31.24s-23.8-27.38-23.8-27.38l-8.35-12.1-35.48-44.57Z" transform="translate(-1373.34 -782.92)"/><path class="cls-13" d="M2482.25,1042.15s15.88,23-10.54,46l-8.18-14.39S2484.4,1063.88,2482.25,1042.15Z" transform="translate(-1373.34 -782.92)"/><path class="cls-5" d="M2458.79,1023.1a.7.7,0,0,0-.3-1.25c-.13,0-13.64-2.17-16.46,8.69a.69.69,0,1,0,1.34.35c2.5-9.62,14.39-7.75,14.89-7.67A.65.65,0,0,0,2458.79,1023.1Z" transform="translate(-1373.34 -782.92)"/><path class="cls-5" d="M2473.68,1003l-10.18,11.46-.51,3.87s-14-21-14.64-26.63S2473.68,1003,2473.68,1003Z" transform="translate(-1373.34 -782.92)"/><path class="cls-5" d="M2433.29,1036.84a.67.67,0,0,0,.28-.5.7.7,0,0,0-.64-.75c-.37,0-9.08-.63-10.3,4.76a.69.69,0,0,0,.52.83.7.7,0,0,0,.84-.52c1-4.22,8.76-3.69,8.84-3.68A.68.68,0,0,0,2433.29,1036.84Z" transform="translate(-1373.34 -782.92)"/><path class="cls-5" d="M2449.18,1033.74a2.09,2.09,0,1,0,.43-2.92A2.09,2.09,0,0,0,2449.18,1033.74Z" transform="translate(-1373.34 -782.92)"/><path class="cls-5" d="M2430.13,1045.29a2.09,2.09,0,1,0,.43-2.92A2.09,2.09,0,0,0,2430.13,1045.29Z" transform="translate(-1373.34 -782.92)"/><circle class="cls-2" cx="2472.63" cy="1015.42" r="12.52" transform="translate(-266.17 2530.43) rotate(-81.61)"/><path class="cls-13" d="M2478.53,1019.69a5.21,5.21,0,0,0,1.61-6.07,4.9,4.9,0,0,0-5-3.41,5.87,5.87,0,0,0-5.14,4.11,5.64,5.64,0,0,1,.19-4,7.85,7.85,0,0,1,4.24-3.6.34.34,0,0,0,.23-.44.35.35,0,0,0-.44-.22,8.44,8.44,0,0,0-4.66,4,6.79,6.79,0,0,0,.15,5.57l.48,1.15.19-1.24c0-.17.69-4.27,4.81-4.62a4.26,4.26,0,0,1,4.29,3,4.48,4.48,0,0,1-1.37,5.26l-.06,0a.35.35,0,0,0-.07.48.34.34,0,0,0,.48.08Z" transform="translate(-1373.34 -782.92)"/><path class="cls-13" d="M2451.66,1049.43a.35.35,0,0,0,.13-.39.34.34,0,0,0-.44-.22l-7,2.3-8-14.48a.35.35,0,0,0-.47-.14.36.36,0,0,0-.14.48l8.3,15,7.52-2.48Z" transform="translate(-1373.34 -782.92)"/><path class="cls-13" d="M2454.57,1054.59a.54.54,0,0,1-.39-.16.56.56,0,0,1,0-.79,35.41,35.41,0,0,1,7.89-5.74.57.57,0,0,1,.77.23.55.55,0,0,1-.23.76,34.58,34.58,0,0,0-7.62,5.53A.52.52,0,0,1,2454.57,1054.59Z" transform="translate(-1373.34 -782.92)"/><path class="cls-13" d="M2488.84,1102.69a16.39,16.39,0,0,1-14.74-9.24l-9.68-18.91c-13,6.55-23.59-7.11-23.7-7.25l-31-41.69a.57.57,0,0,1,.91-.67l31,41.68c.41.54,10.39,13.39,22.77,6.67l.51-.27,10.22,20a15,15,0,0,0,14.77,8.57.52.52,0,0,1,.59.53.56.56,0,0,1-.53.59Z" transform="translate(-1373.34 -782.92)"/><path class="cls-5" d="M2473.68,1003s-11.14-22.09-22.55-24.93-55.27,9.93-56.73,16.67,6,8.08,6,8.08-17.1,5.83-11.13,20.39,39.53-2.28,53-21.17A49.2,49.2,0,0,1,2473.68,1003Z" transform="translate(-1373.34 -782.92)"/><path class="cls-5" d="M2506.66,1103.22a1.12,1.12,0,0,1-.35-2.19c23.45-7.58,14.38-40.34,14.28-40.67a1.13,1.13,0,1,1,2.17-.62c.1.35,9.76,35.18-15.76,43.43A1,1,0,0,1,2506.66,1103.22Z" transform="translate(-1373.34 -782.92)"/><path class="cls-5" d="M2656.07,1232.82l-111.29-27.62-.14-.69c-.15-.7-14.54-69.83-14-106.08.5-36.91,14.18-42.15,14.77-42.35a1.12,1.12,0,0,1,.75,2.12c-.2.08-12.79,5.3-13.27,40.26-.47,34.06,12.34,97.55,13.85,104.89l107,26.55c-.54-11.09-4-79.93-6.93-104.79a1.13,1.13,0,0,1,2.24-.27c3.22,27,7,105.67,7,106.46Z" transform="translate(-1373.34 -782.92)"/><path class="cls-5" d="M2650.86,1157.46a1.12,1.12,0,0,1-.87-1.83c3.09-3.82,7.81-15.15,7.86-15.26a1.13,1.13,0,0,1,2.08.86c-.2.48-4.9,11.75-8.19,15.82A1.15,1.15,0,0,1,2650.86,1157.46Z" transform="translate(-1373.34 -782.92)"/><path class="cls-5" d="M2653.59,1207.47a1.18,1.18,0,0,1-.59-.17c-20.17-12.51-112.89-35.48-113.82-35.71a1.12,1.12,0,0,1-.83-1.36,1.14,1.14,0,0,1,1.37-.83c3.82.95,94,23.29,114.47,36a1.13,1.13,0,0,1-.6,2.08Z" transform="translate(-1373.34 -782.92)"/><path class="cls-5" d="M2454.88,1665.77h-1l-.28-.7c-29.4-71.66-114.86-319-102.6-356.82,10.27-31.64,37.64-39.78,37.91-39.86a1.13,1.13,0,0,1,.62,2.17c-.26.07-26.5,7.93-36.39,38.39-12.06,37.15,72.67,282.19,102.25,354.57,5.9,0,45.17-.51,73.49-9.16a1.13,1.13,0,0,1,.65,2.16C2499.91,1665.56,2458.57,1665.77,2454.88,1665.77Z" transform="translate(-1373.34 -782.92)"/><path class="cls-5" d="M2526.64,1491.16a1.14,1.14,0,0,1-1.1-.88l-17.39-77a1.13,1.13,0,0,1,2.2-.5l17.39,77a1.12,1.12,0,0,1-.85,1.35A1.07,1.07,0,0,1,2526.64,1491.16Z" transform="translate(-1373.34 -782.92)"/><path class="cls-5" d="M2581.69,1448.74c-30.74-4-67.78-14.61-68.23-14.74a1.12,1.12,0,1,1,.62-2.16c.55.15,54.43,15.56,85.83,16.14a1.13,1.13,0,0,1,0,2.26A171.05,171.05,0,0,1,2581.69,1448.74Z" transform="translate(-1373.34 -782.92)"/><path class="cls-2" d="M2416.68,1289.64h0c3.68-1.11,26.86,1.62,35.36,3.18l.05,0,42.78,8.84,1-55.35s-50.42-9.59-57.86-10.34-33.27,5-41.5,10.75c-14.94,10.4-6.42,11.93-6.42,11.93-14.51,12.26-.39,13.07-.39,13.07-14,9.85-.81,13.18-.81,13.18-6.95,6.06-5.85,9.35-3.72,11.05a6.3,6.3,0,0,0,5.57,1.06c4.48-1.2,15.73-4.26,25.92-7.32Z" transform="translate(-1373.34 -782.92)"/><path class="cls-13" d="M2405.58,1276.71a.9.9,0,0,1,.22,1.76c-6.69,2-16.37,7.12-16.47,7.18a.9.9,0,1,1-.85-1.59c.4-.22,9.95-5.31,16.82-7.31A.86.86,0,0,1,2405.58,1276.71Z" transform="translate(-1373.34 -782.92)"/><path class="cls-13" d="M2405.92,1265.33a.9.9,0,0,1,.11,1.78,55.85,55.85,0,0,0-15.88,5.35.9.9,0,1,1-.86-1.57,56.23,56.23,0,0,1,16.46-5.55A.49.49,0,0,1,2405.92,1265.33Z" transform="translate(-1373.34 -782.92)"/><path class="cls-13" d="M2404.3,1252.28a.9.9,0,0,1,.14,1.79,48.09,48.09,0,0,0-13.87,5.31.9.9,0,0,1-.92-1.55,49.3,49.3,0,0,1,14.46-5.53Z" transform="translate(-1373.34 -782.92)"/><path class="cls-5" d="M2373.66,1356.45a1.12,1.12,0,0,1-1.13-1.11,65.91,65.91,0,0,1,5.88-28,1.12,1.12,0,1,1,2,1,65,65,0,0,0-5.64,27,1.12,1.12,0,0,1-1.11,1.14Z" transform="translate(-1373.34 -782.92)"/><path class="cls-5" d="M2379.41,1364.21a1.13,1.13,0,0,1-1.12-1c-.76-9.9,4.84-24.65,5.08-25.27a1.13,1.13,0,1,1,2.1.81c-.06.14-5.66,14.9-4.93,24.29a1.14,1.14,0,0,1-1,1.21Z" transform="translate(-1373.34 -782.92)"/><path class="cls-5" d="M2339.82,1674.86c-54.07,0-83.5-34.16-83.8-34.52l-.36-.43.12-.55c18.5-80.56,95-294.49,95.75-296.64a1.12,1.12,0,0,1,1.44-.68,1.13,1.13,0,0,1,.68,1.44c-.77,2.14-76.85,215-95.54,295.82,3.61,4,33.65,35.08,86.17,33.23a1.1,1.1,0,0,1,1.17,1.09,1.12,1.12,0,0,1-1.09,1.16C2342.83,1674.84,2341.31,1674.86,2339.82,1674.86Z" transform="translate(-1373.34 -782.92)"/><path class="cls-11" d="M2529.5,1710H2436a15.28,15.28,0,0,1-2-.45c-6-1.94-6.5-5.51-6.22-7.57a3.23,3.23,0,0,1,1.42-2.24l51.66-34,17.06,7.67A54.39,54.39,0,0,0,2515,1678c12.11,1.18,31.72,1.81,35.58-5.84l-.8,29.37S2552.64,1710.18,2529.5,1710Z" transform="translate(-1373.34 -782.92)"/><rect class="cls-5" y="926.38" width="1622.21" height="6.44"/><path class="cls-15" d="M2454,953c-20.78,0-36.52-2.66-46.82-7.89a52.47,52.47,0,0,1-14.91,2.11h0c-10.62,0-20.75-3-28.53-8.43a33.27,33.27,0,0,1-14.61-24.43c-7.37-3.22-11.59-7.52-12.55-12.78-1.22-6.74,3-14.84,12.62-24.09-15.77-24.62-16.1-50.15-.88-70.16,11.68-15.35,25.5-24.16,37.93-24.16a21,21,0,0,1,16.44,7.27c4.26,5.07,6,12.18,5.12,20.21,10.64-6.38,21.28-7.67,31.43-3.79a58.34,58.34,0,0,1,9.33-4.27,25.93,25.93,0,0,1,8.79-1.5c11.65,0,25,7,37.54,19.85a112,112,0,0,1,26.47,43.94c3.55,11.61,4.32,22.76,2.23,32.25a40.9,40.9,0,0,1-17.15,25.45c1.15,6.56-.18,12.22-4,16.84C2495.08,948.47,2478.78,953,2454,953Zm-44.07-8.79c10,4.5,24.82,6.79,44.07,6.79,23.8,0,40-4.45,46.92-12.85,3.24-3.94,4.47-8.76,3.69-14.35a65.3,65.3,0,0,1-19.07,7.82,120.39,120.39,0,0,1-57.67-.37h0A38,38,0,0,1,2409.94,944.25Zm-58.69-29c2.73,20.59,22.94,30,41,30h0a50.74,50.74,0,0,0,12.4-1.5c-8.93-5.38-13-13-12-22.68h0C2380.12,921,2363.37,919.88,2351.25,915.27Zm43.45,5.82c-1,9.5,3.25,16.87,12.69,21.91a36.87,36.87,0,0,0,18.38-12.25,138.73,138.73,0,0,1-26-9.73C2398.07,921.06,2396.37,921.08,2394.7,921.09Zm34.39,8.43a118,118,0,0,0,56,.2,62.52,62.52,0,0,0,19.17-8c-1.75-7.83-7.24-17-15.94-26.6l-.76.73c-2.38,14.89-11,26.87-23.78,32.9a20.68,20.68,0,0,1-8.91,2c-7.09,0-14.55-3.61-21.65-10.47A34,34,0,0,1,2429.09,929.52Zm-25-8.63A137.15,137.15,0,0,0,2427,929a31.9,31.9,0,0,0,4.52-10.36l-.15-.15h0C2422.43,919.72,2413.1,920.54,2404.14,920.89Zm29.72-2.74c5,5,12.48,10.62,21,10.62a18.72,18.72,0,0,0,8-1.84c11.41-5.39,19.38-15.81,22.18-28.84a72.4,72.4,0,0,1-30.83,16.24C2447.91,915.82,2441.06,917.11,2433.86,918.15Zm55.85-24.45c8.68,9.58,14.28,18.79,16.28,26.79,21.55-15.55,17.73-41,13.46-55a100.91,100.91,0,0,0-8.51-19.7c1.58,13.58-6.85,33.14-21.23,47.88h0Zm-94.63,24.91-.09.47h1ZM2351,913c9.56,3.87,24,6,41.93,6.05.08-.49.17-1,.28-1.48a130.24,130.24,0,0,1-36.61-29.93c-.67,1.65-1.34,3.32-2,5C2351.82,899.92,2350.6,906.77,2351,913Zm44.5,3.55c1.54.84,3.11,1.65,4.68,2.43a284.16,284.16,0,0,0,29.55-2.31,76.82,76.82,0,0,1-11.34-17.29,97.53,97.53,0,0,1-16.1,2.22A55.26,55.26,0,0,0,2395.53,916.58Zm24.9-17.63a74.49,74.49,0,0,0,11.61,17.3,39.08,39.08,0,0,0,.53-5.59c.13-5,0-9.94-.38-15.2A110.23,110.23,0,0,1,2420.43,899Zm13.71-4.22a157.53,157.53,0,0,1,.43,16,39.55,39.55,0,0,1-.48,5.39c7-1,13.57-2.28,19.69-3.72a70.86,70.86,0,0,0,31.87-17.52c.11-.75.21-1.52.28-2.28-10.81-11.32-25.43-22.72-42.35-33-1,.75-2,1.51-3,2.27a64.76,64.76,0,0,1,10.92,8.09c2.91,2.64,4.1,5.51,3.53,8.54C2453.61,886.08,2441.64,891.83,2434.14,894.73Zm-76.64-9.16a127.53,127.53,0,0,0,36.23,30,56,56,0,0,1,6.19-13.86h0l0,0a4.7,4.7,0,0,0-.65,0c-10.46,0-17-2.6-18.74-7.52-2.5-6.84,4.46-17.25,20.7-30.95,7.69-6.48,12.8-12.61,15.21-18.24-6.46-3-13-5.83-19.59-8.32-7.16,10.13-17.39,20-30.44,29.4C2363.31,872.23,2360.32,878.78,2357.5,885.57Zm-7.19-6.33c-8.89,8.63-12.85,16-11.76,22,.79,4.35,4.29,8,10.42,10.88a50.41,50.41,0,0,1,3.81-20.2c.79-2,1.6-4.05,2.41-6h0C2353.46,883.72,2351.82,881.48,2350.31,879.24Zm67.93-33.4c-2.55,5.91-7.83,12.27-15.73,18.92-19.34,16.31-21.61,24.63-20.11,28.73s7.45,6.21,16.86,6.21l1.93,0a119.15,119.15,0,0,1,12-15.43c-1-5.1-1.05-9.64-.09-13.17,2.83-10.37,8.66-13.09,13.39-13.39-.48-2.65-1-5.6-1.45-8.47C2422.8,848.06,2420.51,846.93,2418.24,845.84Zm-4.51,40.8a116.44,116.44,0,0,0-10.07,12.91,97.36,97.36,0,0,0,13.9-2A66.29,66.29,0,0,1,2413.73,886.64Zm1.62-1.81a63.59,63.59,0,0,0,4.21,12.27,108.3,108.3,0,0,0,12.46-3.71c-.68-8.08-1.86-15.53-3-21.93A187.71,187.71,0,0,0,2415.35,884.83Zm15.44-14.92c1.17,6.56,2.44,14.3,3.18,22.74,11.1-4.37,18.21-9.77,19.12-14.56.44-2.3-.54-4.54-2.91-6.68a61.46,61.46,0,0,0-11.27-8.24C2436.12,865.39,2433.39,867.65,2430.79,869.91Zm57.22,22,.34.36c15.77-16.22,24.4-39.13,19.29-51.47-2.12-5.09-6.31-7.67-12.46-7.67-6,0-13.51,2.46-22.36,7.33C2484.07,858.5,2489.31,876.25,2488,891.86Zm-42.71-33.6c16.14,9.9,30.19,20.78,40.83,31.65.74-14.76-4.44-31.47-15.06-48.51A255.9,255.9,0,0,0,2445.3,858.26Zm-93.51,19.58c1.33,2,2.76,4,4.28,5.94,2.19-5.21,4.48-10.28,6.83-15.14A138.06,138.06,0,0,0,2351.79,877.84Zm75.07-18.18c-5.76.26-9.74,4.27-11.83,11.94a26,26,0,0,0-.15,10.8c4.11-4.4,8.72-8.84,13.74-13.25q-.61-3.36-1.22-6.58Zm-40.61-74.44c-11.8,0-25,8.51-36.34,23.36-14.62,19.22-14.32,43.78.77,67.56a152.73,152.73,0,0,1,14.15-11.4h0a201.28,201.28,0,0,1,19.94-32.33c-2.28-.74-4.58-1.46-6.83-2.12-10.14-3-17.77-5.84-22.68-8.46s-6.93-4.84-6.61-7c.63-4.34,10.43-5,16.22-5,9.17,0,23.14,1.71,35.11,6.5h0a66.1,66.1,0,0,1,5.62-4.2c1.31-8.15-.26-15.35-4.44-20.32A19,19,0,0,0,2386.25,785.22Zm42.65,74.5c.16.82.31,1.65.47,2.48.33,1.78.67,3.59,1,5.43,2.13-1.83,4.34-3.66,6.59-5.46A24.07,24.07,0,0,0,2428.9,859.72Zm-42.11-26.65a190.34,190.34,0,0,0-18.34,29c11.16-8.41,20-17.19,26.45-26.14C2392.2,834.93,2389.48,834,2386.79,833.07Zm41.74,24.61a26.5,26.5,0,0,1,10.16,3.11h0l3-2.35c-4.71-2.81-9.57-5.53-14.49-8.1C2427.65,852.86,2428.11,855.39,2428.53,857.68Zm-1.66-9.79c5.65,2.91,11.22,6,16.59,9.25A260.57,260.57,0,0,1,2470,839.7a161.69,161.69,0,0,0-9.64-13.38c-6.73-8.43-13.77-14.22-20.94-17.2C2425.49,817.66,2424.21,829.85,2426.87,847.89ZM2419,844c1.91.91,3.82,1.84,5.71,2.8h0c-2.35-17.14-.84-29.72,12.38-38.53a30.33,30.33,0,0,0-9.5-1.55c-6.58,0-13.36,2.21-20.15,6.59a46.41,46.41,0,0,1-1.47,5.76h0c11.89,6.39,16.36,15,13,24.91Zm-21-9c6.4,2.45,12.83,5.18,19.14,8.14,2.88-8.83-1.1-16.27-11.85-22.14A66.18,66.18,0,0,1,2398,835Zm73.75,3.74h0c9.2-5.07,17.08-7.64,23.43-7.64a17.83,17.83,0,0,1,6.87,1.25c-13.18-17.16-30.37-29.2-44.69-29.2a24,24,0,0,0-8.11,1.38,59.18,59.18,0,0,0-7.68,3.38c7,3.25,13.85,9,20.36,17.18a166.29,166.29,0,0,1,9.82,13.65Zm-83.64-7.31c2.65.9,5.32,1.85,8,2.84a64.42,64.42,0,0,0,7.42-14.2q-1.52-.75-3.15-1.44A99.41,99.41,0,0,0,2388.11,831.4Zm-23.24-19.61c-9,0-14,1.65-14.24,3.28-.12.81.68,5.25,27.87,13.29,2.51.74,5.06,1.53,7.59,2.37a103.85,103.85,0,0,1,12.17-13A100,100,0,0,0,2364.87,811.79Zm37.2,5.38q1.07.47,2.07,1c.35-1.08.64-2.16.89-3.22C2404.05,815.62,2403.06,816.37,2402.07,817.17Z" transform="translate(-1373.34 -782.92)"/></g></svg>